<mxfile host="app.diagrams.net" modified="2023-06-12T09:15:42.266Z" agent="Mozilla/5.0 (Windows NT 10.0; Win64; x64) AppleWebKit/537.36 (KHTML, like Gecko) Chrome/114.0.0.0 Safari/537.36" etag="ISnLlns5SbBimQKQ34HN" version="21.3.8" type="device">
  <diagram name="Page-1" id="87obYo9IVu9uCJ9HTKx4">
    <mxGraphModel dx="2100" dy="1158" grid="1" gridSize="10" guides="1" tooltips="1" connect="1" arrows="1" fold="1" page="1" pageScale="1" pageWidth="850" pageHeight="1100" math="0" shadow="0">
      <root>
        <mxCell id="0" />
        <mxCell id="1" parent="0" />
        <mxCell id="Rv_8nFQpvILyS6SBei3u-12" style="edgeStyle=orthogonalEdgeStyle;rounded=0;orthogonalLoop=1;jettySize=auto;html=1;entryX=0.5;entryY=0;entryDx=0;entryDy=0;" edge="1" parent="1" source="Lx5FxVdhqiOAjh-NJIth-1" target="Rv_8nFQpvILyS6SBei3u-1">
          <mxGeometry relative="1" as="geometry" />
        </mxCell>
        <mxCell id="Rv_8nFQpvILyS6SBei3u-13" style="edgeStyle=orthogonalEdgeStyle;rounded=0;orthogonalLoop=1;jettySize=auto;html=1;" edge="1" parent="1" source="Lx5FxVdhqiOAjh-NJIth-1" target="Rv_8nFQpvILyS6SBei3u-2">
          <mxGeometry relative="1" as="geometry" />
        </mxCell>
        <mxCell id="Lx5FxVdhqiOAjh-NJIth-1" value="Start" style="ellipse;whiteSpace=wrap;html=1;" parent="1" vertex="1">
          <mxGeometry x="220" y="10" width="120" height="60" as="geometry" />
        </mxCell>
        <mxCell id="Rv_8nFQpvILyS6SBei3u-41" style="edgeStyle=orthogonalEdgeStyle;rounded=0;orthogonalLoop=1;jettySize=auto;html=1;entryX=0.5;entryY=0;entryDx=0;entryDy=0;" edge="1" parent="1" source="Lx5FxVdhqiOAjh-NJIth-3" target="Lx5FxVdhqiOAjh-NJIth-9">
          <mxGeometry relative="1" as="geometry" />
        </mxCell>
        <mxCell id="Rv_8nFQpvILyS6SBei3u-50" style="edgeStyle=orthogonalEdgeStyle;rounded=0;orthogonalLoop=1;jettySize=auto;html=1;entryX=0.5;entryY=1;entryDx=0;entryDy=0;" edge="1" parent="1" source="Lx5FxVdhqiOAjh-NJIth-3" target="Rv_8nFQpvILyS6SBei3u-48">
          <mxGeometry relative="1" as="geometry" />
        </mxCell>
        <mxCell id="Lx5FxVdhqiOAjh-NJIth-3" value="Did Device 1 &lt;br&gt;PIR sensor detect movement?" style="rhombus;whiteSpace=wrap;html=1;" parent="1" vertex="1">
          <mxGeometry x="220" y="470" width="120" height="110" as="geometry" />
        </mxCell>
        <mxCell id="Lx5FxVdhqiOAjh-NJIth-6" value="No" style="text;html=1;align=center;verticalAlign=middle;resizable=0;points=[];autosize=1;strokeColor=none;fillColor=none;" parent="1" vertex="1">
          <mxGeometry x="184.44" y="490" width="40" height="30" as="geometry" />
        </mxCell>
        <mxCell id="Lx5FxVdhqiOAjh-NJIth-8" value="Yes" style="text;html=1;align=center;verticalAlign=middle;resizable=0;points=[];autosize=1;strokeColor=none;fillColor=none;" parent="1" vertex="1">
          <mxGeometry x="289.44" y="580" width="40" height="30" as="geometry" />
        </mxCell>
        <mxCell id="Rv_8nFQpvILyS6SBei3u-19" style="edgeStyle=orthogonalEdgeStyle;rounded=0;orthogonalLoop=1;jettySize=auto;html=1;entryX=0.5;entryY=0;entryDx=0;entryDy=0;" edge="1" parent="1" source="Lx5FxVdhqiOAjh-NJIth-9" target="Rv_8nFQpvILyS6SBei3u-15">
          <mxGeometry relative="1" as="geometry" />
        </mxCell>
        <mxCell id="Lx5FxVdhqiOAjh-NJIth-9" value="Begin interval timer" style="rounded=0;whiteSpace=wrap;html=1;" parent="1" vertex="1">
          <mxGeometry x="222.25" y="630" width="115.5" height="50" as="geometry" />
        </mxCell>
        <mxCell id="Lx5FxVdhqiOAjh-NJIth-13" value="" style="edgeStyle=orthogonalEdgeStyle;rounded=0;orthogonalLoop=1;jettySize=auto;html=1;entryX=0.5;entryY=0;entryDx=0;entryDy=0;" parent="1" source="Lx5FxVdhqiOAjh-NJIth-10" target="Rv_8nFQpvILyS6SBei3u-52" edge="1">
          <mxGeometry relative="1" as="geometry">
            <mxPoint x="280" y="940" as="targetPoint" />
            <Array as="points" />
          </mxGeometry>
        </mxCell>
        <mxCell id="Lx5FxVdhqiOAjh-NJIth-16" value="" style="edgeStyle=orthogonalEdgeStyle;rounded=0;orthogonalLoop=1;jettySize=auto;html=1;" parent="1" source="Lx5FxVdhqiOAjh-NJIth-10" target="Lx5FxVdhqiOAjh-NJIth-15" edge="1">
          <mxGeometry relative="1" as="geometry" />
        </mxCell>
        <mxCell id="Lx5FxVdhqiOAjh-NJIth-10" value="Did Device 2&lt;br style=&quot;border-color: var(--border-color);&quot;&gt;PIR sensor detect movement?" style="rhombus;whiteSpace=wrap;html=1;rounded=0;" parent="1" vertex="1">
          <mxGeometry x="216.94" y="800" width="125" height="110" as="geometry" />
        </mxCell>
        <mxCell id="Rv_8nFQpvILyS6SBei3u-26" style="edgeStyle=orthogonalEdgeStyle;rounded=0;orthogonalLoop=1;jettySize=auto;html=1;" edge="1" parent="1" source="Lx5FxVdhqiOAjh-NJIth-12" target="Rv_8nFQpvILyS6SBei3u-24">
          <mxGeometry relative="1" as="geometry" />
        </mxCell>
        <mxCell id="Lx5FxVdhqiOAjh-NJIth-12" value="Device 1 calculates speed with set Distance variable and Time Elapsed variable for vehicle to move from Device 1 to Device 2" style="whiteSpace=wrap;html=1;rounded=0;" parent="1" vertex="1">
          <mxGeometry x="571" y="180" width="150.5" height="80" as="geometry" />
        </mxCell>
        <mxCell id="Lx5FxVdhqiOAjh-NJIth-14" value="Yes" style="text;html=1;align=center;verticalAlign=middle;resizable=0;points=[];autosize=1;strokeColor=none;fillColor=none;" parent="1" vertex="1">
          <mxGeometry x="238.44" y="895" width="40" height="30" as="geometry" />
        </mxCell>
        <mxCell id="Rv_8nFQpvILyS6SBei3u-29" style="edgeStyle=orthogonalEdgeStyle;rounded=0;orthogonalLoop=1;jettySize=auto;html=1;exitX=0.5;exitY=0;exitDx=0;exitDy=0;entryX=0;entryY=0.5;entryDx=0;entryDy=0;" edge="1" parent="1" source="Lx5FxVdhqiOAjh-NJIth-15" target="Rv_8nFQpvILyS6SBei3u-15">
          <mxGeometry relative="1" as="geometry">
            <mxPoint x="50" y="530" as="targetPoint" />
            <Array as="points">
              <mxPoint x="106" y="740" />
            </Array>
          </mxGeometry>
        </mxCell>
        <mxCell id="Rv_8nFQpvILyS6SBei3u-43" style="edgeStyle=orthogonalEdgeStyle;rounded=0;orthogonalLoop=1;jettySize=auto;html=1;" edge="1" parent="1" source="Lx5FxVdhqiOAjh-NJIth-15">
          <mxGeometry relative="1" as="geometry">
            <mxPoint x="40" y="530" as="targetPoint" />
            <Array as="points">
              <mxPoint x="40" y="855" />
            </Array>
          </mxGeometry>
        </mxCell>
        <mxCell id="Lx5FxVdhqiOAjh-NJIth-15" value="Still within &lt;br&gt;interval timer?" style="rhombus;whiteSpace=wrap;html=1;rounded=0;" parent="1" vertex="1">
          <mxGeometry x="50" y="810" width="113" height="90" as="geometry" />
        </mxCell>
        <mxCell id="Lx5FxVdhqiOAjh-NJIth-20" value="No" style="text;html=1;align=center;verticalAlign=middle;resizable=0;points=[];autosize=1;strokeColor=none;fillColor=none;" parent="1" vertex="1">
          <mxGeometry x="40" y="810" width="40" height="30" as="geometry" />
        </mxCell>
        <mxCell id="Lx5FxVdhqiOAjh-NJIth-24" value="No" style="text;html=1;align=center;verticalAlign=middle;resizable=0;points=[];autosize=1;strokeColor=none;fillColor=none;" parent="1" vertex="1">
          <mxGeometry x="193.69" y="820" width="40" height="30" as="geometry" />
        </mxCell>
        <mxCell id="ObX8C9m_a-rFlt3IML2l-6" style="edgeStyle=orthogonalEdgeStyle;rounded=0;orthogonalLoop=1;jettySize=auto;html=1;entryX=0.5;entryY=0;entryDx=0;entryDy=0;" parent="1" source="ObX8C9m_a-rFlt3IML2l-1" target="ObX8C9m_a-rFlt3IML2l-5" edge="1">
          <mxGeometry relative="1" as="geometry" />
        </mxCell>
        <mxCell id="Rv_8nFQpvILyS6SBei3u-56" style="edgeStyle=orthogonalEdgeStyle;rounded=0;orthogonalLoop=1;jettySize=auto;html=1;entryX=0.5;entryY=1;entryDx=0;entryDy=0;" edge="1" parent="1" source="ObX8C9m_a-rFlt3IML2l-1" target="Rv_8nFQpvILyS6SBei3u-54">
          <mxGeometry relative="1" as="geometry" />
        </mxCell>
        <mxCell id="ObX8C9m_a-rFlt3IML2l-1" value="Turn off hardware?" style="rhombus;whiteSpace=wrap;html=1;rounded=0;" parent="1" vertex="1">
          <mxGeometry x="590.75" y="550" width="110" height="100" as="geometry" />
        </mxCell>
        <mxCell id="ObX8C9m_a-rFlt3IML2l-4" value="No" style="text;html=1;align=center;verticalAlign=middle;resizable=0;points=[];autosize=1;strokeColor=none;fillColor=none;" parent="1" vertex="1">
          <mxGeometry x="560" y="570" width="40" height="30" as="geometry" />
        </mxCell>
        <mxCell id="ObX8C9m_a-rFlt3IML2l-5" value="End" style="ellipse;whiteSpace=wrap;html=1;" parent="1" vertex="1">
          <mxGeometry x="589.5" y="690" width="112.5" height="60" as="geometry" />
        </mxCell>
        <mxCell id="ObX8C9m_a-rFlt3IML2l-7" value="Yes" style="text;html=1;align=center;verticalAlign=middle;resizable=0;points=[];autosize=1;strokeColor=none;fillColor=none;" parent="1" vertex="1">
          <mxGeometry x="605.75" y="645" width="40" height="30" as="geometry" />
        </mxCell>
        <mxCell id="Rv_8nFQpvILyS6SBei3u-9" style="edgeStyle=orthogonalEdgeStyle;rounded=0;orthogonalLoop=1;jettySize=auto;html=1;entryX=0.5;entryY=0;entryDx=0;entryDy=0;" edge="1" parent="1" source="Rv_8nFQpvILyS6SBei3u-1" target="Rv_8nFQpvILyS6SBei3u-3">
          <mxGeometry relative="1" as="geometry" />
        </mxCell>
        <mxCell id="Rv_8nFQpvILyS6SBei3u-1" value="Turn on Overspeeding Device 1" style="whiteSpace=wrap;html=1;" vertex="1" parent="1">
          <mxGeometry x="120" y="110" width="120" height="60" as="geometry" />
        </mxCell>
        <mxCell id="Rv_8nFQpvILyS6SBei3u-14" style="edgeStyle=orthogonalEdgeStyle;rounded=0;orthogonalLoop=1;jettySize=auto;html=1;entryX=0.5;entryY=0;entryDx=0;entryDy=0;" edge="1" parent="1" source="Rv_8nFQpvILyS6SBei3u-2" target="Rv_8nFQpvILyS6SBei3u-6">
          <mxGeometry relative="1" as="geometry" />
        </mxCell>
        <mxCell id="Rv_8nFQpvILyS6SBei3u-2" value="Turn on Overspeeding Device 2" style="whiteSpace=wrap;html=1;" vertex="1" parent="1">
          <mxGeometry x="329.44" y="110" width="120" height="60" as="geometry" />
        </mxCell>
        <mxCell id="Rv_8nFQpvILyS6SBei3u-10" style="edgeStyle=orthogonalEdgeStyle;rounded=0;orthogonalLoop=1;jettySize=auto;html=1;" edge="1" parent="1" source="Rv_8nFQpvILyS6SBei3u-3" target="Rv_8nFQpvILyS6SBei3u-4">
          <mxGeometry relative="1" as="geometry" />
        </mxCell>
        <mxCell id="Rv_8nFQpvILyS6SBei3u-3" value="Device 1 connects to WiFi network and subscribes to &quot;OVS&quot; MQTT topic" style="whiteSpace=wrap;html=1;" vertex="1" parent="1">
          <mxGeometry x="120" y="190" width="120" height="60" as="geometry" />
        </mxCell>
        <mxCell id="Rv_8nFQpvILyS6SBei3u-11" style="edgeStyle=orthogonalEdgeStyle;rounded=0;orthogonalLoop=1;jettySize=auto;html=1;entryX=0.5;entryY=0;entryDx=0;entryDy=0;" edge="1" parent="1" source="Rv_8nFQpvILyS6SBei3u-4" target="Rv_8nFQpvILyS6SBei3u-5">
          <mxGeometry relative="1" as="geometry" />
        </mxCell>
        <mxCell id="Rv_8nFQpvILyS6SBei3u-4" value="Device 1 connects to Device 2 via ESP-NOW Protocol (Receiver)" style="whiteSpace=wrap;html=1;" vertex="1" parent="1">
          <mxGeometry x="120" y="270" width="120" height="60" as="geometry" />
        </mxCell>
        <mxCell id="Rv_8nFQpvILyS6SBei3u-8" style="edgeStyle=orthogonalEdgeStyle;rounded=0;orthogonalLoop=1;jettySize=auto;html=1;entryX=0.5;entryY=0;entryDx=0;entryDy=0;" edge="1" parent="1" source="Rv_8nFQpvILyS6SBei3u-5" target="Lx5FxVdhqiOAjh-NJIth-3">
          <mxGeometry relative="1" as="geometry" />
        </mxCell>
        <mxCell id="Rv_8nFQpvILyS6SBei3u-5" value="Device 1 PIR sensor awaits movement" style="whiteSpace=wrap;html=1;" vertex="1" parent="1">
          <mxGeometry x="120" y="350" width="120" height="60" as="geometry" />
        </mxCell>
        <mxCell id="Rv_8nFQpvILyS6SBei3u-39" style="edgeStyle=orthogonalEdgeStyle;rounded=0;orthogonalLoop=1;jettySize=auto;html=1;" edge="1" parent="1" source="Rv_8nFQpvILyS6SBei3u-6">
          <mxGeometry relative="1" as="geometry">
            <mxPoint x="280" y="440" as="targetPoint" />
            <Array as="points">
              <mxPoint x="389" y="440" />
            </Array>
          </mxGeometry>
        </mxCell>
        <mxCell id="Rv_8nFQpvILyS6SBei3u-6" value="Device 2 connects to Device 1 via ESP-NOW (Sender)" style="whiteSpace=wrap;html=1;" vertex="1" parent="1">
          <mxGeometry x="329.44" y="190" width="120" height="60" as="geometry" />
        </mxCell>
        <mxCell id="Rv_8nFQpvILyS6SBei3u-20" style="edgeStyle=orthogonalEdgeStyle;rounded=0;orthogonalLoop=1;jettySize=auto;html=1;" edge="1" parent="1" source="Rv_8nFQpvILyS6SBei3u-15" target="Lx5FxVdhqiOAjh-NJIth-10">
          <mxGeometry relative="1" as="geometry" />
        </mxCell>
        <mxCell id="Rv_8nFQpvILyS6SBei3u-15" value="Device 2 PIR sensor awaits movement" style="whiteSpace=wrap;html=1;" vertex="1" parent="1">
          <mxGeometry x="219.94" y="710" width="120" height="60" as="geometry" />
        </mxCell>
        <mxCell id="Rv_8nFQpvILyS6SBei3u-27" style="edgeStyle=orthogonalEdgeStyle;rounded=0;orthogonalLoop=1;jettySize=auto;html=1;entryX=0.5;entryY=0;entryDx=0;entryDy=0;" edge="1" parent="1" source="Rv_8nFQpvILyS6SBei3u-24" target="Rv_8nFQpvILyS6SBei3u-25">
          <mxGeometry relative="1" as="geometry" />
        </mxCell>
        <mxCell id="Rv_8nFQpvILyS6SBei3u-55" style="edgeStyle=orthogonalEdgeStyle;rounded=0;orthogonalLoop=1;jettySize=auto;html=1;entryX=1;entryY=0.5;entryDx=0;entryDy=0;" edge="1" parent="1" source="Rv_8nFQpvILyS6SBei3u-24" target="Rv_8nFQpvILyS6SBei3u-54">
          <mxGeometry relative="1" as="geometry" />
        </mxCell>
        <mxCell id="Rv_8nFQpvILyS6SBei3u-24" value="Is vehicle overspeeding?" style="rhombus;whiteSpace=wrap;html=1;" vertex="1" parent="1">
          <mxGeometry x="590.75" y="299" width="110" height="100" as="geometry" />
        </mxCell>
        <mxCell id="Rv_8nFQpvILyS6SBei3u-47" style="edgeStyle=orthogonalEdgeStyle;rounded=0;orthogonalLoop=1;jettySize=auto;html=1;entryX=0.5;entryY=0;entryDx=0;entryDy=0;" edge="1" parent="1" source="Rv_8nFQpvILyS6SBei3u-25" target="ObX8C9m_a-rFlt3IML2l-1">
          <mxGeometry relative="1" as="geometry" />
        </mxCell>
        <mxCell id="Rv_8nFQpvILyS6SBei3u-25" value="Device 1 sends a signal: &quot;1 OVS&quot; to the Recording System to save the video via MQTT" style="whiteSpace=wrap;html=1;rounded=0;" vertex="1" parent="1">
          <mxGeometry x="576" y="440" width="139.25" height="80" as="geometry" />
        </mxCell>
        <mxCell id="Rv_8nFQpvILyS6SBei3u-42" value="Yes" style="text;html=1;align=center;verticalAlign=middle;resizable=0;points=[];autosize=1;strokeColor=none;fillColor=none;" vertex="1" parent="1">
          <mxGeometry x="110" y="790" width="40" height="30" as="geometry" />
        </mxCell>
        <mxCell id="Rv_8nFQpvILyS6SBei3u-44" value="Yes" style="text;html=1;align=center;verticalAlign=middle;resizable=0;points=[];autosize=1;strokeColor=none;fillColor=none;" vertex="1" parent="1">
          <mxGeometry x="644.75" y="390" width="40" height="30" as="geometry" />
        </mxCell>
        <mxCell id="Rv_8nFQpvILyS6SBei3u-46" value="No" style="text;html=1;align=center;verticalAlign=middle;resizable=0;points=[];autosize=1;strokeColor=none;fillColor=none;" vertex="1" parent="1">
          <mxGeometry x="560" y="320" width="40" height="30" as="geometry" />
        </mxCell>
        <mxCell id="Rv_8nFQpvILyS6SBei3u-49" style="edgeStyle=orthogonalEdgeStyle;rounded=0;orthogonalLoop=1;jettySize=auto;html=1;entryX=0;entryY=0.5;entryDx=0;entryDy=0;" edge="1" parent="1" source="Rv_8nFQpvILyS6SBei3u-48" target="Rv_8nFQpvILyS6SBei3u-5">
          <mxGeometry relative="1" as="geometry" />
        </mxCell>
        <mxCell id="Rv_8nFQpvILyS6SBei3u-48" value="B" style="ellipse;whiteSpace=wrap;html=1;aspect=fixed;" vertex="1" parent="1">
          <mxGeometry x="15" y="355" width="50" height="50" as="geometry" />
        </mxCell>
        <mxCell id="Rv_8nFQpvILyS6SBei3u-52" value="A" style="ellipse;whiteSpace=wrap;html=1;aspect=fixed;" vertex="1" parent="1">
          <mxGeometry x="254.44" y="940" width="50" height="50" as="geometry" />
        </mxCell>
        <mxCell id="Rv_8nFQpvILyS6SBei3u-54" value="B" style="ellipse;whiteSpace=wrap;html=1;aspect=fixed;" vertex="1" parent="1">
          <mxGeometry x="480" y="324" width="50" height="50" as="geometry" />
        </mxCell>
        <mxCell id="Rv_8nFQpvILyS6SBei3u-58" style="edgeStyle=orthogonalEdgeStyle;rounded=0;orthogonalLoop=1;jettySize=auto;html=1;entryX=0.5;entryY=0;entryDx=0;entryDy=0;" edge="1" parent="1" source="Rv_8nFQpvILyS6SBei3u-57" target="Lx5FxVdhqiOAjh-NJIth-12">
          <mxGeometry relative="1" as="geometry" />
        </mxCell>
        <mxCell id="Rv_8nFQpvILyS6SBei3u-57" value="A" style="ellipse;whiteSpace=wrap;html=1;aspect=fixed;" vertex="1" parent="1">
          <mxGeometry x="621.25" y="90" width="50" height="50" as="geometry" />
        </mxCell>
      </root>
    </mxGraphModel>
  </diagram>
</mxfile>
